<svg xmlns="http://www.w3.org/2000/svg" width="196" height="32" viewBox="0 0 196 32" fill="none">
<path d="M13.6791 15.6365L20.856 26H16.8381L10.6587 17.1605H7.69376V26H4.17459V9.62339H1.51443L3.28787 6.3259H7.69376V14.1124H10.6587L16.5332 6.3259H20.5235L13.6791 15.6365ZM19.7753 18.9062C19.7753 17.373 20.1263 16.0336 20.8283 14.8883C21.5118 13.8168 22.4447 12.9948 23.627 12.4221C24.8093 11.8494 26.084 11.5631 27.451 11.5631C28.855 11.5631 30.1204 11.8402 31.2473 12.3944C32.4296 12.9671 33.3625 13.8168 34.046 14.9437C34.7295 16.0521 35.0712 17.373 35.0712 18.9062C35.0712 20.458 34.7295 21.7973 34.046 22.9242C33.3625 24.0326 32.4296 24.8916 31.2473 25.5012C30.0834 26.0924 28.818 26.3879 27.451 26.3879C26.1024 26.3879 24.837 26.0924 23.6547 25.5012C22.454 24.9101 21.5026 24.0511 20.8006 22.9242C20.1171 21.7788 19.7753 20.4395 19.7753 18.9062ZM79.5458 12.0065H82.677V13.9184C83.1573 13.1795 83.7947 12.6161 84.589 12.2281C85.4018 11.8217 86.4456 11.6185 87.7202 11.6185C89.0318 11.6185 90.1957 11.9141 91.2117 12.5052C92.1908 13.1148 92.9482 13.9831 93.4839 15.11C94.0381 16.2184 94.3152 17.493 94.3152 18.9339C94.3152 20.3933 94.0381 21.6865 93.4839 22.8134C92.9482 23.9217 92.1908 24.7808 91.2117 25.3904C90.7499 25.7044 90.2049 25.9353 89.5768 26.0831C88.9672 26.2494 88.3483 26.3325 87.7202 26.3325C86.6303 26.3325 85.8175 26.2494 85.2818 26.0831C84.1734 25.7506 83.3882 25.1964 82.9264 24.4205V30.9601H79.5458V12.0065ZM36.8724 12.0065H40.2253V17.3268H45.9613V12.0065H49.2865V26H45.9613V20.0978H40.2253V26H36.8724V12.0065ZM50.7551 12.0065H63.6403V14.6666H58.8741V26H55.4658V14.6666H50.7551V12.0065ZM68.2678 12.0065C69.524 15.4425 70.6694 18.8416 71.7039 22.2037C72.6829 18.8785 73.7913 15.4794 75.0291 12.0065H78.4097L73.2556 26.2771C72.8307 27.4409 72.4243 28.3369 72.0364 28.965C71.6115 29.5931 71.085 30.0641 70.4569 30.3782C69.8473 30.7107 69.0345 30.877 68.0184 30.877C67.4458 30.877 67.1317 30.8677 67.0763 30.8493L65.9402 28.1891C66.2912 28.263 66.7253 28.2999 67.2425 28.2999C67.8706 28.2999 68.3787 28.2076 68.7666 28.0228C69.1176 27.875 69.3855 27.6718 69.5702 27.4132C69.7549 27.1731 69.9119 26.8682 70.0413 26.4988L64.7209 12.0065H68.2678ZM23.1836 18.8785C23.1836 20.4118 23.5531 21.5849 24.292 22.3977C25.031 23.1921 26.0563 23.5892 27.3679 23.5892C28.6979 23.5892 29.7324 23.1921 30.4714 22.3977C31.2288 21.5849 31.6075 20.4118 31.6075 18.8785C31.6075 17.3822 31.238 16.2553 30.4991 15.4979C29.7602 14.722 28.7164 14.3341 27.3679 14.3341C26.0378 14.3341 25.0033 14.722 24.2643 15.4979C23.5439 16.2553 23.1836 17.3822 23.1836 18.8785ZM82.8433 18.9062C82.8802 20.2917 83.2497 21.4001 83.9517 22.2314C84.6537 23.0627 85.642 23.4784 86.9166 23.4784C88.1913 23.4784 89.1704 23.0627 89.8539 22.2314C90.5559 21.4001 90.9161 20.2917 90.9346 18.9062C90.9161 17.5392 90.5559 16.4493 89.8539 15.6365C89.1704 14.8052 88.1913 14.3895 86.9166 14.3895C85.642 14.3895 84.6537 14.7959 83.9517 15.6087C83.2497 16.4216 82.8802 17.5207 82.8433 18.9062Z" fill="#222222"/>
<path d="M115.901 6.3259V23.8663H118.256V30.1011H115.79V26H100.993V30.1011H98.4988V23.8663H100.134C101.279 22.333 101.99 20.1994 102.267 17.4653C102.378 16.1907 102.443 14.916 102.461 13.6413L102.517 6.3259H115.901ZM113.351 8.45957H104.872L104.817 13.863C104.798 16.3569 104.613 18.4075 104.262 20.0146C103.911 21.6033 103.413 22.8872 102.766 23.8663H113.351V8.45957ZM133.128 12.0065V26H130.856V20.4303C130.856 17.7886 130.893 15.812 130.966 14.5003C130.615 15.1469 129.969 16.1629 129.027 17.5485L127.503 19.793L123.429 26H120.88V12.0065H123.125V18.4075C123.125 19.5713 123.115 20.3287 123.097 20.6797L123.041 23.4507C123.78 22.176 124.824 20.5319 126.173 18.5183L130.551 12.0065H133.128ZM145.774 26V24.1157C145.275 24.8547 144.61 25.4273 143.778 25.8337C142.947 26.2217 141.987 26.4157 140.897 26.4157C139.345 26.4157 138.126 26.0647 137.239 25.3627C136.371 24.6607 135.937 23.6724 135.937 22.3977V22.2591C135.937 20.8552 136.426 19.793 137.405 19.0725C138.403 18.3336 139.936 17.9087 142.005 17.7978L145.663 17.5485V16.6063C145.663 15.6088 145.376 14.8606 144.804 14.3618C144.231 13.8445 143.4 13.5859 142.31 13.5859C141.405 13.5859 140.583 13.7707 139.844 14.1401C139.123 14.4911 138.384 15.0823 137.627 15.9136L136.103 14.5281C137.71 12.5884 139.76 11.6185 142.254 11.6185C144.046 11.6185 145.441 12.0434 146.439 12.8932C147.436 13.7429 147.935 14.9252 147.935 16.44V26H145.774ZM142.171 19.4881C140.73 19.562 139.714 19.8022 139.123 20.2086C138.532 20.615 138.236 21.2616 138.236 22.1483V22.2869C138.236 23.0073 138.504 23.5615 139.04 23.9495C139.594 24.3374 140.37 24.5314 141.368 24.5314C142.162 24.5314 142.892 24.3743 143.557 24.0603C144.222 23.7463 144.739 23.3121 145.109 22.7579C145.478 22.1853 145.663 21.5387 145.663 20.8182V19.3219L142.171 19.4881ZM149.753 24.0603H151.055C151.572 23.5061 151.96 22.6933 152.219 21.6218C152.496 20.5319 152.653 19.054 152.69 17.1882L152.745 12.0065H163.275V24.0603H165.326V29.4637H163.026V26H152.025V29.4637H149.753V24.0603ZM160.892 13.9461H154.879L154.824 17.3268C154.805 19.0817 154.685 20.5042 154.463 21.5941C154.242 22.684 153.909 23.5061 153.466 24.0603H160.892V13.9461ZM180.815 19.0171C180.815 20.458 180.51 21.7327 179.901 22.8411C179.273 23.9679 178.404 24.8454 177.296 25.4735C176.188 26.0831 174.922 26.3879 173.5 26.3879C172.059 26.3879 170.793 26.0739 169.704 25.4458C168.577 24.8362 167.699 23.9772 167.071 22.8688C166.461 21.7604 166.157 20.4765 166.157 19.0171V18.9062C166.157 17.4838 166.471 16.2276 167.099 15.1377C167.708 14.0293 168.567 13.1703 169.676 12.5607C170.784 11.9326 172.059 11.6185 173.5 11.6185C174.922 11.6185 176.188 11.9233 177.296 12.5329C178.404 13.1426 179.263 14.0016 179.873 15.11C180.501 16.2184 180.815 17.4838 180.815 18.9062V19.0171ZM168.595 19.0171C168.595 20.0885 168.798 21.0214 169.205 21.8158C169.611 22.6471 170.184 23.2844 170.923 23.7278C171.662 24.1711 172.521 24.3928 173.5 24.3928C174.479 24.3928 175.338 24.1619 176.077 23.7001C176.816 23.2567 177.379 22.6286 177.767 21.8158C178.174 21.003 178.377 20.0701 178.377 19.0171V18.9062C178.377 17.8533 178.174 16.9296 177.767 16.1352C177.361 15.3409 176.779 14.722 176.021 14.2787C175.282 13.8353 174.442 13.6136 173.5 13.6136C172.558 13.6136 171.717 13.8261 170.978 14.251C170.239 14.6943 169.657 15.3224 169.232 16.1352C168.808 16.9481 168.595 17.8717 168.595 18.9062V19.0171ZM188.13 19.8207H185.719V26H183.336V12.0065H185.719V17.881H188.157L192.757 12.0065H195.306L190.069 18.74L195.75 26H193.034L188.13 19.8207Z" fill="#00BEA2"/>
</svg>