<svg xmlns="http://www.w3.org/2000/svg" width="206" height="32" viewBox="0 0 206 32" fill="none">
<path d="M13.6791 15.6365L20.856 26H16.8381L10.6587 17.1605H7.69376V26H4.17459V9.62339H1.51443L3.28787 6.3259H7.69376V14.1124H10.6587L16.5332 6.3259H20.5235L13.6791 15.6365ZM19.7753 18.9062C19.7753 17.373 20.1263 16.0336 20.8283 14.8883C21.5118 13.8168 22.4447 12.9948 23.627 12.4221C24.8093 11.8494 26.084 11.5631 27.451 11.5631C28.855 11.5631 30.1204 11.8402 31.2473 12.3944C32.4296 12.9671 33.3625 13.8168 34.046 14.9437C34.7295 16.0521 35.0712 17.373 35.0712 18.9062C35.0712 20.458 34.7295 21.7973 34.046 22.9242C33.3625 24.0326 32.4296 24.8916 31.2473 25.5012C30.0834 26.0924 28.818 26.3879 27.451 26.3879C26.1024 26.3879 24.837 26.0924 23.6547 25.5012C22.454 24.9101 21.5026 24.0511 20.8006 22.9242C20.1171 21.7788 19.7753 20.4395 19.7753 18.9062ZM79.5458 12.0065H82.677V13.9184C83.1573 13.1795 83.7947 12.6161 84.589 12.2281C85.4018 11.8217 86.4456 11.6185 87.7202 11.6185C89.0318 11.6185 90.1957 11.9141 91.2117 12.5052C92.1908 13.1148 92.9482 13.9831 93.4839 15.11C94.0381 16.2184 94.3152 17.493 94.3152 18.9339C94.3152 20.3933 94.0381 21.6865 93.4839 22.8134C92.9482 23.9217 92.1908 24.7808 91.2117 25.3904C90.7499 25.7044 90.2049 25.9353 89.5768 26.0831C88.9672 26.2494 88.3483 26.3325 87.7202 26.3325C86.6303 26.3325 85.8175 26.2494 85.2818 26.0831C84.1734 25.7506 83.3882 25.1964 82.9264 24.4205V30.9601H79.5458V12.0065ZM36.8724 12.0065H40.2253V17.3268H45.9613V12.0065H49.2865V26H45.9613V20.0978H40.2253V26H36.8724V12.0065ZM50.7551 12.0065H63.6403V14.6666H58.8741V26H55.4658V14.6666H50.7551V12.0065ZM68.2678 12.0065C69.524 15.4425 70.6694 18.8416 71.7039 22.2037C72.6829 18.8785 73.7913 15.4794 75.0291 12.0065H78.4097L73.2556 26.2771C72.8307 27.4409 72.4243 28.3369 72.0364 28.965C71.6115 29.5931 71.085 30.0641 70.4569 30.3782C69.8473 30.7107 69.0345 30.877 68.0184 30.877C67.4458 30.877 67.1317 30.8677 67.0763 30.8493L65.9402 28.1891C66.2912 28.263 66.7253 28.2999 67.2425 28.2999C67.8706 28.2999 68.3787 28.2076 68.7666 28.0228C69.1176 27.875 69.3855 27.6718 69.5702 27.4132C69.7549 27.1731 69.9119 26.8682 70.0413 26.4988L64.7209 12.0065H68.2678ZM23.1836 18.8785C23.1836 20.4118 23.5531 21.5849 24.292 22.3977C25.031 23.1921 26.0563 23.5892 27.3679 23.5892C28.6979 23.5892 29.7324 23.1921 30.4714 22.3977C31.2288 21.5849 31.6075 20.4118 31.6075 18.8785C31.6075 17.3822 31.238 16.2553 30.4991 15.4979C29.7602 14.722 28.7164 14.3341 27.3679 14.3341C26.0378 14.3341 25.0033 14.722 24.2643 15.4979C23.5439 16.2553 23.1836 17.3822 23.1836 18.8785ZM82.8433 18.9062C82.8802 20.2917 83.2497 21.4001 83.9517 22.2314C84.6537 23.0627 85.642 23.4784 86.9166 23.4784C88.1913 23.4784 89.1704 23.0627 89.8539 22.2314C90.5559 21.4001 90.9161 20.2917 90.9346 18.9062C90.9161 17.5392 90.5559 16.4493 89.8539 15.6365C89.1704 14.8052 88.1913 14.3895 86.9166 14.3895C85.642 14.3895 84.6537 14.7959 83.9517 15.6087C83.2497 16.4216 82.8802 17.5207 82.8433 18.9062Z" fill="#222222"/>
<path d="M98.7482 8.68125C99.8935 7.70216 101.039 7.00018 102.184 6.57529C103.33 6.13193 104.595 5.91025 105.98 5.91025C109.029 5.91025 111.476 6.8801 113.324 8.8198C114.192 9.74347 114.848 10.8334 115.291 12.0896C115.753 13.3273 115.984 14.6851 115.984 16.1629C115.984 18.1396 115.587 19.8853 114.792 21.4001C113.979 22.9888 112.825 24.2266 111.329 25.1133C109.851 25.9815 108.123 26.4157 106.147 26.4157C105.131 26.4157 104.189 26.3048 103.32 26.0831C102.471 25.8614 101.658 25.5105 100.882 25.0302C100.106 24.5498 99.2839 23.8756 98.4157 23.0073L99.9397 21.317C101.418 22.684 102.775 23.543 104.013 23.894C104.734 24.0972 105.454 24.1988 106.174 24.1988C107.505 24.1988 108.696 23.894 109.749 23.2844C110.802 22.6748 111.643 21.825 112.271 20.7351C112.899 19.6452 113.25 18.4075 113.324 17.022H103.514V14.8606H113.296C113.167 13.549 112.779 12.3759 112.132 11.3414C111.504 10.3254 110.663 9.54026 109.61 8.98606C108.558 8.41339 107.357 8.12705 106.008 8.12705C104.974 8.12705 103.995 8.30255 103.071 8.65354C102.166 9.00453 101.224 9.60492 100.245 10.4547L98.7482 8.68125ZM123.563 19.8207H121.152V26H118.769V12.0065H121.152V17.881H123.591L128.191 12.0065H130.74L125.503 18.74L131.183 26H128.468L123.563 19.8207ZM138.756 26.3879C137.315 26.3879 136.05 26.0924 134.96 25.5012C133.833 24.8916 132.965 24.0511 132.355 22.9796C131.745 21.9082 131.441 20.6704 131.441 19.2665V18.9339C131.441 17.4746 131.755 16.1999 132.383 15.11C132.992 14.0016 133.851 13.1426 134.96 12.5329C136.068 11.9233 137.324 11.6185 138.728 11.6185C140.04 11.6185 141.167 11.8217 142.109 12.2281C143.051 12.6161 143.901 13.2719 144.658 14.1955L143.162 15.6642C142.515 14.9068 141.841 14.3803 141.139 14.0847C140.456 13.7707 139.643 13.6136 138.701 13.6136C137.666 13.6136 136.798 13.8445 136.096 14.3064C135.394 14.7682 134.849 15.4148 134.461 16.2461C134.073 17.0774 133.879 17.9733 133.879 18.9339V19.2665C133.879 20.1901 134.073 21.0307 134.461 21.7881C134.849 22.5824 135.412 23.2105 136.151 23.6724C136.89 24.1342 137.758 24.3651 138.756 24.3651C139.347 24.3651 139.911 24.2912 140.446 24.1434C140.945 23.9956 141.407 23.774 141.832 23.4784C142.257 23.1828 142.737 22.7302 143.273 22.1206L144.824 23.423C144.012 24.4759 143.125 25.2334 142.164 25.6952C141.222 26.157 140.086 26.3879 138.756 26.3879ZM152.978 13.9461V26H150.595V13.9461H145.69V12.0065H157.883V13.9461H152.978ZM172.299 23.5615C171.32 24.5776 170.341 25.3073 169.361 25.7506C168.382 26.1755 167.237 26.3879 165.925 26.3879C164.448 26.3879 163.164 26.0831 162.074 25.4735C160.965 24.8639 160.106 24.0049 159.497 22.8965C158.887 21.7881 158.582 20.4949 158.582 19.0171C158.582 17.6131 158.878 16.3384 159.469 15.1931C160.079 14.0662 160.919 13.1887 161.991 12.5607C163.081 11.9326 164.346 11.6185 165.787 11.6185C167.819 11.6185 169.398 12.2189 170.525 13.4197C171.671 14.6204 172.243 16.2738 172.243 18.3798C172.243 18.5091 172.225 18.8508 172.188 19.405H161.048C161.141 20.4026 161.372 21.2616 161.741 21.982C162.148 22.7395 162.711 23.3306 163.432 23.7555C164.152 24.1804 165.02 24.3928 166.036 24.3928C166.997 24.3928 167.847 24.2173 168.586 23.8663C169.343 23.5153 170.11 22.9242 170.886 22.0929L172.299 23.5615ZM169.971 17.6593C169.916 16.3846 169.509 15.3778 168.752 14.6389C168.013 13.8815 167.015 13.5028 165.759 13.5028C164.521 13.5028 163.487 13.8815 162.656 14.6389C161.824 15.3778 161.316 16.3846 161.132 17.6593H169.971ZM189.086 19.0171C189.086 20.458 188.808 21.7327 188.254 22.8411C187.682 23.9495 186.878 24.8085 185.844 25.4181C184.809 26.0277 183.627 26.3325 182.297 26.3325C179.803 26.3325 178.048 25.5474 177.032 23.9772V30.9878H174.649V12.0065H176.865V14.4726C177.955 12.5884 179.775 11.6462 182.324 11.6462C183.617 11.6462 184.781 11.9418 185.816 12.5329C186.85 13.161 187.654 14.02 188.227 15.11C188.799 16.1999 189.086 17.4561 189.086 18.8785V19.0171ZM186.675 18.8785C186.675 17.844 186.481 16.9296 186.093 16.1352C185.686 15.3594 185.114 14.7497 184.375 14.3064C183.654 13.863 182.832 13.6413 181.909 13.6413C180.967 13.6413 180.117 13.8538 179.359 14.2787C178.583 14.722 177.983 15.3316 177.558 16.1075C177.133 16.8834 176.921 17.8071 176.921 18.8785V19.0171C176.921 20.6243 177.373 21.9174 178.279 22.8965C179.184 23.8571 180.385 24.3374 181.881 24.3374C182.805 24.3374 183.636 24.1065 184.375 23.6447C185.095 23.2013 185.659 22.5824 186.065 21.7881C186.472 20.9753 186.675 20.0516 186.675 19.0171V18.8785ZM201.145 26V19.793H194.135V26H191.752V12.0065H194.135V17.8533H201.145V12.0065H203.528V26H201.145Z" fill="#FC7630"/>
</svg>