<svg width="116" height="22" viewBox="0 0 116 22" fill="none" xmlns="http://www.w3.org/2000/svg"><path fill-rule="evenodd" clip-rule="evenodd" d="M107.976 7.18862C107.814 6.15562 107.068 5.57562 106.115 5.23362C104.479 4.64562 102.786 4.61362 101.075 4.75262C99.4942 4.88062 97.9652 5.19462 96.4912 5.95462C96.2182 4.47262 95.9552 3.05162 95.6892 1.61462C96.9862 0.982624 98.2882 0.630624 99.6262 0.393624C102.488 -0.111376 105.356 -0.190376 108.192 0.512624C111.183 1.25462 113.283 2.94862 113.863 6.06462C114.006 6.83462 114 7.99962 114 7.99962V14.9996C114 15.3036 114.038 15.9536 114.057 16.2566C114.163 17.8746 114.311 18.0326 116 18.2776V21.6086C114.333 22.0206 112.621 22.2376 110.926 21.4556C109.973 21.0166 109.534 20.2036 109.325 19.2436C109.298 19.1177 109.285 18.9887 109.269 18.8338L109.269 18.8335L109.269 18.8306C109.261 18.7503 109.252 18.663 109.24 18.5656C107.194 21.4446 104.266 22.1516 101.048 21.9746C97.4422 21.7766 94.6742 19.4066 94.1642 16.6106C93.3352 12.0606 95.6802 8.66162 100.36 7.97562C103.319 7.54162 104.167 7.72562 107.992 8.99962C107.992 8.807 108 8.61486 108.007 8.42379C108.023 8.00485 108.039 7.59108 107.976 7.18862ZM107.875 12.9746C106.893 12.3136 105.777 11.9666 104.61 11.8216C103.397 11.6706 102.2 11.7496 101.171 12.5276C100.227 13.2416 99.8702 14.3756 100.216 15.5446C100.481 16.4436 101.417 17.1476 102.52 17.2496C103.583 17.3496 104.614 17.1916 105.596 16.7826C107.358 16.0476 108.048 14.8876 107.875 12.9746ZM33.6011 21.9996C30.5411 22.0176 27.7901 21.1466 25.5071 19.1736C22.9751 16.9856 21.9751 14.1376 22.0001 10.9096C22.0221 8.23163 22.7581 5.79563 24.6031 3.73763C26.2581 1.89263 28.3641 0.794628 30.8221 0.295628C33.9091 -0.331372 36.8801 0.0206283 39.6141 1.52863C43.0621 3.43163 44.7651 6.41263 44.9751 10.2076C45.1601 13.5456 44.3341 16.5526 41.7751 18.9516C39.5041 21.0806 36.7191 21.9676 33.6011 21.9996ZM33.6751 5.39663C31.0831 5.45863 29.2641 6.80563 28.5691 9.02363C28.1421 10.3906 28.1691 11.7466 28.5951 13.1136C29.2141 15.0986 30.5851 16.3176 32.6731 16.6356C34.7881 16.9566 36.6051 16.2776 37.7611 14.4836C39.0761 12.4406 39.1011 10.2586 38.0521 8.09763C37.1541 6.24663 35.5541 5.41863 33.6751 5.39663ZM77 13.0001H80L80.49 13.1101L81.1811 14.338L81.1919 14.3573C82.6343 16.9203 84.0759 19.4817 85.493 22.0001H92C91.9318 21.8332 91.8734 21.6757 91.8181 21.5266C91.7081 21.2299 91.6104 20.9664 91.472 20.7281C90.3588 18.8125 89.238 16.9023 88.1173 14.9922L88.1098 14.9793L88.1046 14.9705C87.492 13.9263 86.8794 12.8822 86.268 11.8371C86.1617 11.6575 86.0663 11.4708 85.9632 11.2693L85.963 11.2688C85.9158 11.1766 85.8671 11.0813 85.815 10.9821C90.04 8.50112 90.918 4.52012 90.796 0.000122083H85C85 1.77343 84.7075 2.8164 84.3638 4.04217L84.3638 4.04226L84.3636 4.04308C84.3197 4.19949 84.275 4.35887 84.23 4.52312C83.777 6.18012 82.651 7.28712 81.042 7.84812C80.1508 8.15863 79.1981 8.10293 78.2216 8.04585C77.8176 8.02222 77.4095 7.99837 77 8.00012V0.000122083H71V21.9811L77 22.0001V13.0001ZM61.0645 0.000122083H67.0005V22.0001H61.0065V14.9451C60.6527 15.0269 60.3084 15.1152 59.9699 15.202C59.2532 15.3858 58.5621 15.563 57.8605 15.6581C55.1395 16.0261 52.5485 15.6911 50.3295 13.8141C48.6135 12.3621 47.6085 10.4151 47.3045 8.20612C47.098 6.70806 47.0807 4.741 47.0632 2.76498V2.76495C47.055 1.83116 47.0467 0.895366 47.0185 0.00612208L53.0005 0.000122083V1.00012V6.00012C53.0005 8.35512 55.0755 10.2131 57.3345 10.2461C58.7295 10.2661 59.5435 9.92612 60.9935 9.00612L61.0645 0.000122083ZM7 22.0001H13V6.00012H20V0.000122083H0V6.00012H7V22.0001Z" fill="#231F20" class="default"></path></svg>