<svg xmlns="http://www.w3.org/2000/svg" x="0px" y="0px" viewBox="0 0 106 41" xml:space="preserve" class="sbis_ru-Header__logo-img sbis_ru-Header--anim" ws-creates-context="true" ws-delegates-tabfocus="true" tabindex="0"><path fill="#1D1D1B" d="M75.9,41h-4.3c-2.7,0-5.4-0.5-7.1-2.4c-1.5-1.9-2-4.6-1.9-7c0-3.4,1.2-6.4,3.5-8.7c2.4-2.4,4.4-3.1,7.5-3.2h5.1 L76,22.2c0,0-2.1,0-2.6,0c-3.5,0-4.7,1.5-6,3c-1.6,1.9-2.1,3.8-2.1,6.2c-0.1,1.9,0.3,4.2,1.5,5.6c0.9,1.2,2.4,1.6,3.9,1.6 c0.7,0,5.4,0,5.4,0L75.9,41z" xmlns="http://www.w3.org/2000/svg"></path><polygon fill="#0C94FF" points="93.5,23.9 86.5,32.9 86.5,33.1 94.4,26.2 97,23.9 97.7,23.4 102.1,19.5 102,18.8 106,12.1 106,12 101.4,13.7 99,16.8 84.9,7.5 " xmlns="http://www.w3.org/2000/svg"></polygon><path fill="#1D1D1B" d="M59.4,19.5L56.6,41H54c0,0,1.9-14.2,2.1-16.5L44.7,39.1c-1.3,1.7-2.8,1.9-4.4,1.9l2.8-21.5h2.6l-2.3,17.1 l13.4-17.1C56.8,19.5,59.4,19.5,59.4,19.5z" xmlns="http://www.w3.org/2000/svg"></path><path fill="#1D1D1B" d="M13.4,41H9.1c-2.7,0-5.4-0.5-7.1-2.4c-1.5-1.9-2-4.6-1.9-7c0-3.4,1.2-6.4,3.5-8.7c2.6-2.6,4.6-3.2,7.7-3.4h5.1 l-2.7,2.6c0,0-2.1,0-2.6,0c-3.5,0-4.7,1.5-6,3C3.5,26.9,3,28.8,3,31.2c-0.1,1.9,0.3,4.2,1.5,5.6c1.1,1.1,2.6,1.5,4,1.6 c0.7,0,5.4,0,5.4,0L13.4,41z" xmlns="http://www.w3.org/2000/svg"></path><path fill="#1D1D1B" d="M28.9,28.9h-6.6l0.5-4.2c0,0,0,0,0-0.1l0.4-2.7h2.6h7.3l2.7-2.6h-0.1H21l-0.7,4.6l0,0l0,0l-0.4,3l0,0l-1.6,12.8 L18.1,41h10.1c1.5,0,2.4-0.3,3.6-0.7c2-0.7,3.9-3.1,3.9-5.5C35.9,28.6,31,28.9,28.9,28.9z M32.4,37.1c-0.4,0.4-0.8,0.7-1.2,0.9 c-0.5,0.3-1.1,0.4-1.6,0.4h-8.5l0.9-7.1h8.6c0.9,0,1.6,0.5,2,1.3C33.5,34,33.3,35.9,32.4,37.1z" xmlns="http://www.w3.org/2000/svg"></path></svg>