<svg xmlns="http://www.w3.org/2000/svg" focusable="false" viewBox="0 0 60 21" color="" role="img" width="60" height="21" data-v-144412e9="" data-v-e3a64394=""><path fill="#00aaff" d="M3.999-0.001l-1.001 2.747h13.876l1.001-2.747h-13.876zM2.497 4.119l-1.001 2.747h13.876l1.001-2.747h-13.876zM0.998 8.239l-1.001 2.747h13.876l1.001-2.747h-13.876z"></path><path fill="#0a2896" d="M29.496 12.033v0.058c0.634 0.233 1.24 0.641 1.557 0.903 0.981 0.815 1.413 1.892 1.413 3.29 0 2.301-1.212 3.96-3.202 4.484-0.606 0.175-1.24 0.233-2.423 0.233h-6.027v-16.829h5.336c1.096 0 1.846 0.058 2.509 0.232 1.933 0.524 3.202 1.864 3.202 3.989 0 1.136-0.404 2.097-1.067 2.737-0.288 0.291-0.692 0.641-1.298 0.903zM24.161 13.809v4.426h2.308c0.692 0 1.326-0.058 1.788-0.495s0.663-0.99 0.663-1.718c0-0.553-0.145-1.077-0.433-1.455-0.49-0.612-1.096-0.757-2.134-0.757h-2.192zM24.132 10.897h1.875c0.577 0 0.865 0 1.153-0.087 0.779-0.233 1.27-0.931 1.27-1.892 0-1.135-0.519-1.631-1.27-1.863-0.317-0.087-0.634-0.117-1.269-0.117h-1.759v3.959zM37.485 21.001v-14.005h-4.816v-2.824h13.383l-0.952 2.824h-4.269v14.005h-3.345zM47.090 21.001v-16.829h10.845l-0.952 2.824h-6.576v3.727h2.682c2.163 0 3.288 0.524 4.067 1.194 0.606 0.524 1.644 1.689 1.644 3.989 0 2.271-1.067 3.523-1.961 4.163-1.038 0.727-2.134 0.932-4.355 0.932h-5.394zM50.407 18.177h2.509c0.952 0 1.528-0.233 1.932-0.757 0.202-0.262 0.49-0.728 0.49-1.601s-0.288-1.485-0.865-1.922c-0.346-0.262-0.808-0.407-1.586-0.407h-2.48v4.687z"></path></svg>